0
SECTION
2
HEADER
9
$ACADVER
1
AC1009
9
$EXTMIN
10
-50000.0
20
-50000.0
30
0.0
9
$EXTMAX
10
50000.0
20
50000.0
30
0.0
9
$LUNITS
70
2
9
$LUPREC
70
3
0
ENDSEC
0
SECTION
2
TABLES
0
TABLE
2
LTYPE
70
16
0
LTYPE
2
CONTINUOUS
70
0
3
Solid line
72
65
73
0
40
0.00000000
0
ENDTAB
0
TABLE
2
LAYER
70
10
0
LAYER
2
PADS
70
0
62
6
6
CONTINUOUS
0
ENDTAB
0
ENDSEC
0
SECTION
2
BLOCKS
0
BLOCK
8
0
2
$MODEL_SPACE
70
0
10
0.00000000
20
0.00000000
30
0.00000000
3
$MODEL_SPACE
1

0
ENDBLK
8
0
0
BLOCK
67
1
8
0
2
$PAPER_SPACE
70
0
10
0.0
20
0.0
30
0.0
3
$PAPER_SPACE
1

0
ENDBLK
67
1
8
0
0
ENDSEC
0
SECTION
2
ENTITIES
0
POLYLINE
8
PADS
66
1
10
0.0
20
0.0
30
0.0
70
1
0
VERTEX
8
PADS
10
-3.24577777778
20
-12.5
30
0.00000000
0
VERTEX
8
PADS
10
-3.14888888889
20
-12.5
30
0.00000000
0
VERTEX
8
PADS
10
-3.14888888889
20
13.0
30
0.00000000
0
VERTEX
8
PADS
10
-3.24577777778
20
13.0
30
0.00000000
0
SEQEND
8
PADS
0
POLYLINE
8
PADS
66
1
10
0.0
20
0.0
30
0.0
70
1
0
VERTEX
8
PADS
10
-3.052
20
-12.5
30
0.00000000
0
VERTEX
8
PADS
10
-2.95511111111
20
-12.5
30
0.00000000
0
VERTEX
8
PADS
10
-2.95511111111
20
13.0
30
0.00000000
0
VERTEX
8
PADS
10
-3.052
20
13.0
30
0.00000000
0
SEQEND
8
PADS
0
POLYLINE
8
PADS
66
1
10
0.0
20
0.0
30
0.0
70
1
0
VERTEX
8
PADS
10
-3.63333333333
20
-13.0
30
0.00000000
0
VERTEX
8
PADS
10
-3.53644444444
20
-13.0
30
0.00000000
0
VERTEX
8
PADS
10
-3.53644444444
20
12.5
30
0.00000000
0
VERTEX
8
PADS
10
-3.63333333333
20
12.5
30
0.00000000
0
SEQEND
8
PADS
0
POLYLINE
8
PADS
66
1
10
0.0
20
0.0
30
0.0
70
1
0
VERTEX
8
PADS
10
-3.43955555556
20
-13.0
30
0.00000000
0
VERTEX
8
PADS
10
-3.34266666667
20
-13.0
30
0.00000000
0
VERTEX
8
PADS
10
-3.34266666667
20
12.5
30
0.00000000
0
VERTEX
8
PADS
10
-3.43955555556
20
12.5
30
0.00000000
0
SEQEND
8
PADS
0
POLYLINE
8
PADS
66
1
10
0.0
20
0.0
30
0.0
70
1
0
VERTEX
8
PADS
10
-2.47066666667
20
-12.5
30
0.00000000
0
VERTEX
8
PADS
10
-2.37377777778
20
-12.5
30
0.00000000
0
VERTEX
8
PADS
10
-2.37377777778
20
13.0
30
0.00000000
0
VERTEX
8
PADS
10
-2.47066666667
20
13.0
30
0.00000000
0
SEQEND
8
PADS
0
POLYLINE
8
PADS
66
1
10
0.0
20
0.0
30
0.0
70
1
0
VERTEX
8
PADS
10
-2.27688888889
20
-12.5
30
0.00000000
0
VERTEX
8
PADS
10
-2.18
20
-12.5
30
0.00000000
0
VERTEX
8
PADS
10
-2.18
20
13.0
30
0.00000000
0
VERTEX
8
PADS
10
-2.27688888889
20
13.0
30
0.00000000
0
SEQEND
8
PADS
0
POLYLINE
8
PADS
66
1
10
0.0
20
0.0
30
0.0
70
1
0
VERTEX
8
PADS
10
-2.85822222222
20
-13.0
30
0.00000000
0
VERTEX
8
PADS
10
-2.76133333333
20
-13.0
30
0.00000000
0
VERTEX
8
PADS
10
-2.76133333333
20
12.5
30
0.00000000
0
VERTEX
8
PADS
10
-2.85822222222
20
12.5
30
0.00000000
0
SEQEND
8
PADS
0
POLYLINE
8
PADS
66
1
10
0.0
20
0.0
30
0.0
70
1
0
VERTEX
8
PADS
10
-2.66444444444
20
-13.0
30
0.00000000
0
VERTEX
8
PADS
10
-2.56755555556
20
-13.0
30
0.00000000
0
VERTEX
8
PADS
10
-2.56755555556
20
12.5
30
0.00000000
0
VERTEX
8
PADS
10
-2.66444444444
20
12.5
30
0.00000000
0
SEQEND
8
PADS
0
POLYLINE
8
PADS
66
1
10
0.0
20
0.0
30
0.0
70
1
0
VERTEX
8
PADS
10
-1.69555555556
20
-12.5
30
0.00000000
0
VERTEX
8
PADS
10
-1.59866666667
20
-12.5
30
0.00000000
0
VERTEX
8
PADS
10
-1.59866666667
20
13.0
30
0.00000000
0
VERTEX
8
PADS
10
-1.69555555556
20
13.0
30
0.00000000
0
SEQEND
8
PADS
0
POLYLINE
8
PADS
66
1
10
0.0
20
0.0
30
0.0
70
1
0
VERTEX
8
PADS
10
-1.50177777778
20
-12.5
30
0.00000000
0
VERTEX
8
PADS
10
-1.40488888889
20
-12.5
30
0.00000000
0
VERTEX
8
PADS
10
-1.40488888889
20
13.0
30
0.00000000
0
VERTEX
8
PADS
10
-1.50177777778
20
13.0
30
0.00000000
0
SEQEND
8
PADS
0
POLYLINE
8
PADS
66
1
10
0.0
20
0.0
30
0.0
70
1
0
VERTEX
8
PADS
10
-2.08311111111
20
-13.0
30
0.00000000
0
VERTEX
8
PADS
10
-1.98622222222
20
-13.0
30
0.00000000
0
VERTEX
8
PADS
10
-1.98622222222
20
12.5
30
0.00000000
0
VERTEX
8
PADS
10
-2.08311111111
20
12.5
30
0.00000000
0
SEQEND
8
PADS
0
POLYLINE
8
PADS
66
1
10
0.0
20
0.0
30
0.0
70
1
0
VERTEX
8
PADS
10
-1.88933333333
20
-13.0
30
0.00000000
0
VERTEX
8
PADS
10
-1.79244444444
20
-13.0
30
0.00000000
0
VERTEX
8
PADS
10
-1.79244444444
20
12.5
30
0.00000000
0
VERTEX
8
PADS
10
-1.88933333333
20
12.5
30
0.00000000
0
SEQEND
8
PADS
0
POLYLINE
8
PADS
66
1
10
0.0
20
0.0
30
0.0
70
1
0
VERTEX
8
PADS
10
-0.920444444444
20
-12.5
30
0.00000000
0
VERTEX
8
PADS
10
-0.823555555556
20
-12.5
30
0.00000000
0
VERTEX
8
PADS
10
-0.823555555556
20
13.0
30
0.00000000
0
VERTEX
8
PADS
10
-0.920444444444
20
13.0
30
0.00000000
0
SEQEND
8
PADS
0
POLYLINE
8
PADS
66
1
10
0.0
20
0.0
30
0.0
70
1
0
VERTEX
8
PADS
10
-0.726666666667
20
-12.5
30
0.00000000
0
VERTEX
8
PADS
10
-0.629777777778
20
-12.5
30
0.00000000
0
VERTEX
8
PADS
10
-0.629777777778
20
13.0
30
0.00000000
0
VERTEX
8
PADS
10
-0.726666666667
20
13.0
30
0.00000000
0
SEQEND
8
PADS
0
POLYLINE
8
PADS
66
1
10
0.0
20
0.0
30
0.0
70
1
0
VERTEX
8
PADS
10
-1.308
20
-13.0
30
0.00000000
0
VERTEX
8
PADS
10
-1.21111111111
20
-13.0
30
0.00000000
0
VERTEX
8
PADS
10
-1.21111111111
20
12.5
30
0.00000000
0
VERTEX
8
PADS
10
-1.308
20
12.5
30
0.00000000
0
SEQEND
8
PADS
0
POLYLINE
8
PADS
66
1
10
0.0
20
0.0
30
0.0
70
1
0
VERTEX
8
PADS
10
-1.11422222222
20
-13.0
30
0.00000000
0
VERTEX
8
PADS
10
-1.01733333333
20
-13.0
30
0.00000000
0
VERTEX
8
PADS
10
-1.01733333333
20
12.5
30
0.00000000
0
VERTEX
8
PADS
10
-1.11422222222
20
12.5
30
0.00000000
0
SEQEND
8
PADS
0
POLYLINE
8
PADS
66
1
10
0.0
20
0.0
30
0.0
70
1
0
VERTEX
8
PADS
10
-0.145333333333
20
-12.5
30
0.00000000
0
VERTEX
8
PADS
10
-0.0484444444444
20
-12.5
30
0.00000000
0
VERTEX
8
PADS
10
-0.0484444444444
20
13.0
30
0.00000000
0
VERTEX
8
PADS
10
-0.145333333333
20
13.0
30
0.00000000
0
SEQEND
8
PADS
0
POLYLINE
8
PADS
66
1
10
0.0
20
0.0
30
0.0
70
1
0
VERTEX
8
PADS
10
0.0484444444444
20
-12.5
30
0.00000000
0
VERTEX
8
PADS
10
0.145333333333
20
-12.5
30
0.00000000
0
VERTEX
8
PADS
10
0.145333333333
20
13.0
30
0.00000000
0
VERTEX
8
PADS
10
0.0484444444444
20
13.0
30
0.00000000
0
SEQEND
8
PADS
0
POLYLINE
8
PADS
66
1
10
0.0
20
0.0
30
0.0
70
1
0
VERTEX
8
PADS
10
-0.532888888889
20
-13.0
30
0.00000000
0
VERTEX
8
PADS
10
-0.436
20
-13.0
30
0.00000000
0
VERTEX
8
PADS
10
-0.436
20
12.5
30
0.00000000
0
VERTEX
8
PADS
10
-0.532888888889
20
12.5
30
0.00000000
0
SEQEND
8
PADS
0
POLYLINE
8
PADS
66
1
10
0.0
20
0.0
30
0.0
70
1
0
VERTEX
8
PADS
10
-0.339111111111
20
-13.0
30
0.00000000
0
VERTEX
8
PADS
10
-0.242222222222
20
-13.0
30
0.00000000
0
VERTEX
8
PADS
10
-0.242222222222
20
12.5
30
0.00000000
0
VERTEX
8
PADS
10
-0.339111111111
20
12.5
30
0.00000000
0
SEQEND
8
PADS
0
POLYLINE
8
PADS
66
1
10
0.0
20
0.0
30
0.0
70
1
0
VERTEX
8
PADS
10
-0.145333333333
20
-12.5
30
0.00000000
0
VERTEX
8
PADS
10
-0.0484444444444
20
-12.5
30
0.00000000
0
VERTEX
8
PADS
10
-0.0484444444444
20
-15.5
30
0.00000000
0
VERTEX
8
PADS
10
-0.145333333333
20
-15.5
30
0.00000000
0
SEQEND
8
PADS
0
POLYLINE
8
PADS
66
1
10
0.0
20
0.0
30
0.0
70
1
0
VERTEX
8
PADS
10
-0.145333333333
20
-25.5
30
0.00000000
0
VERTEX
8
PADS
10
-0.0484444444444
20
-25.5
30
0.00000000
0
VERTEX
8
PADS
10
-0.0484444444444
20
-23.5
30
0.00000000
0
VERTEX
8
PADS
10
-0.145333333333
20
-23.5
30
0.00000000
0
SEQEND
8
PADS
0
POLYLINE
8
PADS
66
1
10
0.0
20
0.0
30
0.0
70
1
0
VERTEX
8
PADS
10
0.629777777778
20
-12.5
30
0.00000000
0
VERTEX
8
PADS
10
0.726666666667
20
-12.5
30
0.00000000
0
VERTEX
8
PADS
10
0.726666666667
20
13.0
30
0.00000000
0
VERTEX
8
PADS
10
0.629777777778
20
13.0
30
0.00000000
0
SEQEND
8
PADS
0
POLYLINE
8
PADS
66
1
10
0.0
20
0.0
30
0.0
70
1
0
VERTEX
8
PADS
10
0.823555555556
20
-12.5
30
0.00000000
0
VERTEX
8
PADS
10
0.920444444444
20
-12.5
30
0.00000000
0
VERTEX
8
PADS
10
0.920444444444
20
13.0
30
0.00000000
0
VERTEX
8
PADS
10
0.823555555556
20
13.0
30
0.00000000
0
SEQEND
8
PADS
0
POLYLINE
8
PADS
66
1
10
0.0
20
0.0
30
0.0
70
1
0
VERTEX
8
PADS
10
0.242222222222
20
-13.0
30
0.00000000
0
VERTEX
8
PADS
10
0.339111111111
20
-13.0
30
0.00000000
0
VERTEX
8
PADS
10
0.339111111111
20
12.5
30
0.00000000
0
VERTEX
8
PADS
10
0.242222222222
20
12.5
30
0.00000000
0
SEQEND
8
PADS
0
POLYLINE
8
PADS
66
1
10
0.0
20
0.0
30
0.0
70
1
0
VERTEX
8
PADS
10
0.436
20
-13.0
30
0.00000000
0
VERTEX
8
PADS
10
0.532888888889
20
-13.0
30
0.00000000
0
VERTEX
8
PADS
10
0.532888888889
20
12.5
30
0.00000000
0
VERTEX
8
PADS
10
0.436
20
12.5
30
0.00000000
0
SEQEND
8
PADS
0
POLYLINE
8
PADS
66
1
10
0.0
20
0.0
30
0.0
70
1
0
VERTEX
8
PADS
10
1.40488888889
20
-12.5
30
0.00000000
0
VERTEX
8
PADS
10
1.50177777778
20
-12.5
30
0.00000000
0
VERTEX
8
PADS
10
1.50177777778
20
13.0
30
0.00000000
0
VERTEX
8
PADS
10
1.40488888889
20
13.0
30
0.00000000
0
SEQEND
8
PADS
0
POLYLINE
8
PADS
66
1
10
0.0
20
0.0
30
0.0
70
1
0
VERTEX
8
PADS
10
1.59866666667
20
-12.5
30
0.00000000
0
VERTEX
8
PADS
10
1.69555555556
20
-12.5
30
0.00000000
0
VERTEX
8
PADS
10
1.69555555556
20
13.0
30
0.00000000
0
VERTEX
8
PADS
10
1.59866666667
20
13.0
30
0.00000000
0
SEQEND
8
PADS
0
POLYLINE
8
PADS
66
1
10
0.0
20
0.0
30
0.0
70
1
0
VERTEX
8
PADS
10
1.01733333333
20
-13.0
30
0.00000000
0
VERTEX
8
PADS
10
1.11422222222
20
-13.0
30
0.00000000
0
VERTEX
8
PADS
10
1.11422222222
20
12.5
30
0.00000000
0
VERTEX
8
PADS
10
1.01733333333
20
12.5
30
0.00000000
0
SEQEND
8
PADS
0
POLYLINE
8
PADS
66
1
10
0.0
20
0.0
30
0.0
70
1
0
VERTEX
8
PADS
10
1.21111111111
20
-13.0
30
0.00000000
0
VERTEX
8
PADS
10
1.308
20
-13.0
30
0.00000000
0
VERTEX
8
PADS
10
1.308
20
12.5
30
0.00000000
0
VERTEX
8
PADS
10
1.21111111111
20
12.5
30
0.00000000
0
SEQEND
8
PADS
0
POLYLINE
8
PADS
66
1
10
0.0
20
0.0
30
0.0
70
1
0
VERTEX
8
PADS
10
2.18
20
-12.5
30
0.00000000
0
VERTEX
8
PADS
10
2.27688888889
20
-12.5
30
0.00000000
0
VERTEX
8
PADS
10
2.27688888889
20
13.0
30
0.00000000
0
VERTEX
8
PADS
10
2.18
20
13.0
30
0.00000000
0
SEQEND
8
PADS
0
POLYLINE
8
PADS
66
1
10
0.0
20
0.0
30
0.0
70
1
0
VERTEX
8
PADS
10
2.37377777778
20
-12.5
30
0.00000000
0
VERTEX
8
PADS
10
2.47066666667
20
-12.5
30
0.00000000
0
VERTEX
8
PADS
10
2.47066666667
20
13.0
30
0.00000000
0
VERTEX
8
PADS
10
2.37377777778
20
13.0
30
0.00000000
0
SEQEND
8
PADS
0
POLYLINE
8
PADS
66
1
10
0.0
20
0.0
30
0.0
70
1
0
VERTEX
8
PADS
10
1.79244444444
20
-13.0
30
0.00000000
0
VERTEX
8
PADS
10
1.88933333333
20
-13.0
30
0.00000000
0
VERTEX
8
PADS
10
1.88933333333
20
12.5
30
0.00000000
0
VERTEX
8
PADS
10
1.79244444444
20
12.5
30
0.00000000
0
SEQEND
8
PADS
0
POLYLINE
8
PADS
66
1
10
0.0
20
0.0
30
0.0
70
1
0
VERTEX
8
PADS
10
1.98622222222
20
-13.0
30
0.00000000
0
VERTEX
8
PADS
10
2.08311111111
20
-13.0
30
0.00000000
0
VERTEX
8
PADS
10
2.08311111111
20
12.5
30
0.00000000
0
VERTEX
8
PADS
10
1.98622222222
20
12.5
30
0.00000000
0
SEQEND
8
PADS
0
POLYLINE
8
PADS
66
1
10
0.0
20
0.0
30
0.0
70
1
0
VERTEX
8
PADS
10
2.95511111111
20
-12.5
30
0.00000000
0
VERTEX
8
PADS
10
3.052
20
-12.5
30
0.00000000
0
VERTEX
8
PADS
10
3.052
20
13.0
30
0.00000000
0
VERTEX
8
PADS
10
2.95511111111
20
13.0
30
0.00000000
0
SEQEND
8
PADS
0
POLYLINE
8
PADS
66
1
10
0.0
20
0.0
30
0.0
70
1
0
VERTEX
8
PADS
10
3.14888888889
20
-12.5
30
0.00000000
0
VERTEX
8
PADS
10
3.24577777778
20
-12.5
30
0.00000000
0
VERTEX
8
PADS
10
3.24577777778
20
13.0
30
0.00000000
0
VERTEX
8
PADS
10
3.14888888889
20
13.0
30
0.00000000
0
SEQEND
8
PADS
0
POLYLINE
8
PADS
66
1
10
0.0
20
0.0
30
0.0
70
1
0
VERTEX
8
PADS
10
2.56755555556
20
-13.0
30
0.00000000
0
VERTEX
8
PADS
10
2.66444444444
20
-13.0
30
0.00000000
0
VERTEX
8
PADS
10
2.66444444444
20
12.5
30
0.00000000
0
VERTEX
8
PADS
10
2.56755555556
20
12.5
30
0.00000000
0
SEQEND
8
PADS
0
POLYLINE
8
PADS
66
1
10
0.0
20
0.0
30
0.0
70
1
0
VERTEX
8
PADS
10
2.76133333333
20
-13.0
30
0.00000000
0
VERTEX
8
PADS
10
2.85822222222
20
-13.0
30
0.00000000
0
VERTEX
8
PADS
10
2.85822222222
20
12.5
30
0.00000000
0
VERTEX
8
PADS
10
2.76133333333
20
12.5
30
0.00000000
0
SEQEND
8
PADS
0
POLYLINE
8
PADS
66
1
10
0.0
20
0.0
30
0.0
70
1
0
VERTEX
8
PADS
10
3.34266666667
20
-13.0
30
0.00000000
0
VERTEX
8
PADS
10
3.43955555556
20
-13.0
30
0.00000000
0
VERTEX
8
PADS
10
3.43955555556
20
12.5
30
0.00000000
0
VERTEX
8
PADS
10
3.34266666667
20
12.5
30
0.00000000
0
SEQEND
8
PADS
0
POLYLINE
8
PADS
66
1
10
0.0
20
0.0
30
0.0
70
1
0
VERTEX
8
PADS
10
3.53644444444
20
-13.0
30
0.00000000
0
VERTEX
8
PADS
10
3.63333333333
20
-13.0
30
0.00000000
0
VERTEX
8
PADS
10
3.63333333333
20
12.5
30
0.00000000
0
VERTEX
8
PADS
10
3.53644444444
20
12.5
30
0.00000000
0
SEQEND
8
PADS
0
POLYLINE
8
PADS
66
1
10
0.0
20
0.0
30
0.0
70
1
0
VERTEX
8
PADS
10
-4.02088888889
20
-12.75
30
0.00000000
0
VERTEX
8
PADS
10
-3.924
20
-12.75
30
0.00000000
0
VERTEX
8
PADS
10
-3.924
20
12.25
30
0.00000000
0
VERTEX
8
PADS
10
-4.02088888889
20
12.25
30
0.00000000
0
SEQEND
8
PADS
0
POLYLINE
8
PADS
66
1
10
0.0
20
0.0
30
0.0
70
1
0
VERTEX
8
PADS
10
-3.82711111111
20
-12.75
30
0.00000000
0
VERTEX
8
PADS
10
-3.73022222222
20
-12.75
30
0.00000000
0
VERTEX
8
PADS
10
-3.73022222222
20
12.25
30
0.00000000
0
VERTEX
8
PADS
10
-3.82711111111
20
12.25
30
0.00000000
0
SEQEND
8
PADS
0
POLYLINE
8
PADS
66
1
10
0.0
20
0.0
30
0.0
70
1
0
VERTEX
8
PADS
10
3.73022222222
20
-12.75
30
0.00000000
0
VERTEX
8
PADS
10
3.82711111111
20
-12.75
30
0.00000000
0
VERTEX
8
PADS
10
3.82711111111
20
12.25
30
0.00000000
0
VERTEX
8
PADS
10
3.73022222222
20
12.25
30
0.00000000
0
SEQEND
8
PADS
0
POLYLINE
8
PADS
66
1
10
0.0
20
0.0
30
0.0
70
1
0
VERTEX
8
PADS
10
3.924
20
-12.75
30
0.00000000
0
VERTEX
8
PADS
10
4.02088888889
20
-12.75
30
0.00000000
0
VERTEX
8
PADS
10
4.02088888889
20
12.25
30
0.00000000
0
VERTEX
8
PADS
10
3.924
20
12.25
30
0.00000000
0
SEQEND
8
PADS
0
POLYLINE
8
PADS
66
1
10
0.0
20
0.0
30
0.0
70
1
0
VERTEX
8
PADS
10
-4.40844444444
20
-12.75
30
0.00000000
0
VERTEX
8
PADS
10
-4.31155555556
20
-12.75
30
0.00000000
0
VERTEX
8
PADS
10
-4.31155555556
20
12.25
30
0.00000000
0
VERTEX
8
PADS
10
-4.40844444444
20
12.25
30
0.00000000
0
SEQEND
8
PADS
0
POLYLINE
8
PADS
66
1
10
0.0
20
0.0
30
0.0
70
1
0
VERTEX
8
PADS
10
-4.21466666667
20
-12.75
30
0.00000000
0
VERTEX
8
PADS
10
-4.11777777778
20
-12.75
30
0.00000000
0
VERTEX
8
PADS
10
-4.11777777778
20
12.25
30
0.00000000
0
VERTEX
8
PADS
10
-4.21466666667
20
12.25
30
0.00000000
0
SEQEND
8
PADS
0
POLYLINE
8
PADS
66
1
10
0.0
20
0.0
30
0.0
70
1
0
VERTEX
8
PADS
10
4.11777777778
20
-12.75
30
0.00000000
0
VERTEX
8
PADS
10
4.21466666667
20
-12.75
30
0.00000000
0
VERTEX
8
PADS
10
4.21466666667
20
12.25
30
0.00000000
0
VERTEX
8
PADS
10
4.11777777778
20
12.25
30
0.00000000
0
SEQEND
8
PADS
0
POLYLINE
8
PADS
66
1
10
0.0
20
0.0
30
0.0
70
1
0
VERTEX
8
PADS
10
4.31155555556
20
-12.75
30
0.00000000
0
VERTEX
8
PADS
10
4.40844444444
20
-12.75
30
0.00000000
0
VERTEX
8
PADS
10
4.40844444444
20
12.25
30
0.00000000
0
VERTEX
8
PADS
10
4.31155555556
20
12.25
30
0.00000000
0
SEQEND
8
PADS
0
POLYLINE
8
PADS
66
1
10
0.0
20
0.0
30
0.0
70
1
0
VERTEX
8
PADS
10
-4.796
20
-12.75
30
0.00000000
0
VERTEX
8
PADS
10
-4.69911111111
20
-12.75
30
0.00000000
0
VERTEX
8
PADS
10
-4.69911111111
20
12.25
30
0.00000000
0
VERTEX
8
PADS
10
-4.796
20
12.25
30
0.00000000
0
SEQEND
8
PADS
0
POLYLINE
8
PADS
66
1
10
0.0
20
0.0
30
0.0
70
1
0
VERTEX
8
PADS
10
-4.60222222222
20
-12.75
30
0.00000000
0
VERTEX
8
PADS
10
-4.50533333333
20
-12.75
30
0.00000000
0
VERTEX
8
PADS
10
-4.50533333333
20
12.25
30
0.00000000
0
VERTEX
8
PADS
10
-4.60222222222
20
12.25
30
0.00000000
0
SEQEND
8
PADS
0
POLYLINE
8
PADS
66
1
10
0.0
20
0.0
30
0.0
70
1
0
VERTEX
8
PADS
10
4.50533333333
20
-12.75
30
0.00000000
0
VERTEX
8
PADS
10
4.60222222222
20
-12.75
30
0.00000000
0
VERTEX
8
PADS
10
4.60222222222
20
12.25
30
0.00000000
0
VERTEX
8
PADS
10
4.50533333333
20
12.25
30
0.00000000
0
SEQEND
8
PADS
0
POLYLINE
8
PADS
66
1
10
0.0
20
0.0
30
0.0
70
1
0
VERTEX
8
PADS
10
4.69911111111
20
-12.75
30
0.00000000
0
VERTEX
8
PADS
10
4.796
20
-12.75
30
0.00000000
0
VERTEX
8
PADS
10
4.796
20
12.25
30
0.00000000
0
VERTEX
8
PADS
10
4.69911111111
20
12.25
30
0.00000000
0
SEQEND
8
PADS
0
POLYLINE
8
PADS
66
1
10
0.0
20
0.0
30
0.0
70
1
0
VERTEX
8
PADS
10
-5.18355555556
20
-12.75
30
0.00000000
0
VERTEX
8
PADS
10
-5.08666666667
20
-12.75
30
0.00000000
0
VERTEX
8
PADS
10
-5.08666666667
20
12.25
30
0.00000000
0
VERTEX
8
PADS
10
-5.18355555556
20
12.25
30
0.00000000
0
SEQEND
8
PADS
0
POLYLINE
8
PADS
66
1
10
0.0
20
0.0
30
0.0
70
1
0
VERTEX
8
PADS
10
-4.98977777778
20
-12.75
30
0.00000000
0
VERTEX
8
PADS
10
-4.89288888889
20
-12.75
30
0.00000000
0
VERTEX
8
PADS
10
-4.89288888889
20
12.25
30
0.00000000
0
VERTEX
8
PADS
10
-4.98977777778
20
12.25
30
0.00000000
0
SEQEND
8
PADS
0
POLYLINE
8
PADS
66
1
10
0.0
20
0.0
30
0.0
70
1
0
VERTEX
8
PADS
10
4.89288888889
20
-12.75
30
0.00000000
0
VERTEX
8
PADS
10
4.98977777778
20
-12.75
30
0.00000000
0
VERTEX
8
PADS
10
4.98977777778
20
12.25
30
0.00000000
0
VERTEX
8
PADS
10
4.89288888889
20
12.25
30
0.00000000
0
SEQEND
8
PADS
0
POLYLINE
8
PADS
66
1
10
0.0
20
0.0
30
0.0
70
1
0
VERTEX
8
PADS
10
5.08666666667
20
-12.75
30
0.00000000
0
VERTEX
8
PADS
10
5.18355555556
20
-12.75
30
0.00000000
0
VERTEX
8
PADS
10
5.18355555556
20
12.25
30
0.00000000
0
VERTEX
8
PADS
10
5.08666666667
20
12.25
30
0.00000000
0
SEQEND
8
PADS
0
POLYLINE
8
PADS
66
1
10
0.0
20
0.0
30
0.0
70
1
0
VERTEX
8
PADS
10
-5.57111111111
20
-12.75
30
0.00000000
0
VERTEX
8
PADS
10
-5.47422222222
20
-12.75
30
0.00000000
0
VERTEX
8
PADS
10
-5.47422222222
20
12.25
30
0.00000000
0
VERTEX
8
PADS
10
-5.57111111111
20
12.25
30
0.00000000
0
SEQEND
8
PADS
0
POLYLINE
8
PADS
66
1
10
0.0
20
0.0
30
0.0
70
1
0
VERTEX
8
PADS
10
-5.37733333333
20
-12.75
30
0.00000000
0
VERTEX
8
PADS
10
-5.28044444444
20
-12.75
30
0.00000000
0
VERTEX
8
PADS
10
-5.28044444444
20
12.25
30
0.00000000
0
VERTEX
8
PADS
10
-5.37733333333
20
12.25
30
0.00000000
0
SEQEND
8
PADS
0
POLYLINE
8
PADS
66
1
10
0.0
20
0.0
30
0.0
70
1
0
VERTEX
8
PADS
10
5.28044444444
20
-12.75
30
0.00000000
0
VERTEX
8
PADS
10
5.37733333333
20
-12.75
30
0.00000000
0
VERTEX
8
PADS
10
5.37733333333
20
12.25
30
0.00000000
0
VERTEX
8
PADS
10
5.28044444444
20
12.25
30
0.00000000
0
SEQEND
8
PADS
0
POLYLINE
8
PADS
66
1
10
0.0
20
0.0
30
0.0
70
1
0
VERTEX
8
PADS
10
5.47422222222
20
-12.75
30
0.00000000
0
VERTEX
8
PADS
10
5.57111111111
20
-12.75
30
0.00000000
0
VERTEX
8
PADS
10
5.57111111111
20
12.25
30
0.00000000
0
VERTEX
8
PADS
10
5.47422222222
20
12.25
30
0.00000000
0
SEQEND
8
PADS
0
POLYLINE
8
PADS
66
1
10
0.0
20
0.0
30
0.0
70
1
0
VERTEX
8
PADS
10
-5.57111111111
20
13.0
30
0.00000000
0
VERTEX
8
PADS
10
5.57111111111
20
13.0
30
0.00000000
0
VERTEX
8
PADS
10
5.57111111111
20
13.5
30
0.00000000
0
VERTEX
8
PADS
10
-5.57111111111
20
13.5
30
0.00000000
0
SEQEND
8
PADS
0
POLYLINE
8
PADS
66
1
10
0.0
20
0.0
30
0.0
70
1
0
VERTEX
8
PADS
10
-7.0
20
-26.0
30
0.00000000
0
VERTEX
8
PADS
10
7.0
20
-26.0
30
0.00000000
0
VERTEX
8
PADS
10
7.0
20
-25.5
30
0.00000000
0
VERTEX
8
PADS
10
-7.0
20
-25.5
30
0.00000000
0
SEQEND
8
PADS
0
POLYLINE
8
PADS
66
1
10
0.0
20
0.0
30
0.0
70
1
0
VERTEX
8
PADS
10
-4.5
20
-15.5
30
0.00000000
0
VERTEX
8
PADS
10
4.5
20
-15.5
30
0.00000000
0
VERTEX
8
PADS
10
4.5
20
-16.0
30
0.00000000
0
VERTEX
8
PADS
10
-4.5
20
-16.0
30
0.00000000
0
SEQEND
8
PADS
0
POLYLINE
8
PADS
66
1
10
0.0
20
0.0
30
0.0
70
1
0
VERTEX
8
PADS
10
-4.5
20
-23.5
30
0.00000000
0
VERTEX
8
PADS
10
4.5
20
-23.5
30
0.00000000
0
VERTEX
8
PADS
10
4.5
20
-23.0
30
0.00000000
0
VERTEX
8
PADS
10
-4.5
20
-23.0
30
0.00000000
0
SEQEND
8
PADS
0
POLYLINE
8
PADS
66
1
10
0.0
20
0.0
30
0.0
70
1
0
VERTEX
8
PADS
10
-0.242222222222
20
-13.0
30
0.00000000
0
VERTEX
8
PADS
10
-5.57111111111
20
-13.0
30
0.00000000
0
VERTEX
8
PADS
10
-5.57111111111
20
-13.5
30
0.00000000
0
VERTEX
8
PADS
10
-0.242222222222
20
-13.5
30
0.00000000
0
SEQEND
8
PADS
0
POLYLINE
8
PADS
66
1
10
0.0
20
0.0
30
0.0
70
1
0
VERTEX
8
PADS
10
-0.242222222222
20
-13.0
30
0.00000000
0
VERTEX
8
PADS
10
-7.09688888889
20
-13.0
30
0.00000000
0
VERTEX
8
PADS
10
-7.09688888889
20
-13.5
30
0.00000000
0
VERTEX
8
PADS
10
-0.242222222222
20
-13.5
30
0.00000000
0
SEQEND
8
PADS
0
POLYLINE
8
PADS
66
1
10
0.0
20
0.0
30
0.0
70
1
0
VERTEX
8
PADS
10
-7.0
20
-13.0
30
0.00000000
0
VERTEX
8
PADS
10
-7.5
20
-13.0
30
0.00000000
0
VERTEX
8
PADS
10
-7.5
20
-26.0
30
0.00000000
0
VERTEX
8
PADS
10
-7.0
20
-26.0
30
0.00000000
0
SEQEND
8
PADS
0
POLYLINE
8
PADS
66
1
10
0.0
20
0.0
30
0.0
70
1
0
VERTEX
8
PADS
10
0.242222222222
20
-13.0
30
0.00000000
0
VERTEX
8
PADS
10
5.57111111111
20
-13.0
30
0.00000000
0
VERTEX
8
PADS
10
5.57111111111
20
-13.5
30
0.00000000
0
VERTEX
8
PADS
10
0.242222222222
20
-13.5
30
0.00000000
0
SEQEND
8
PADS
0
POLYLINE
8
PADS
66
1
10
0.0
20
0.0
30
0.0
70
1
0
VERTEX
8
PADS
10
0.242222222222
20
-13.0
30
0.00000000
0
VERTEX
8
PADS
10
7.09688888889
20
-13.0
30
0.00000000
0
VERTEX
8
PADS
10
7.09688888889
20
-13.5
30
0.00000000
0
VERTEX
8
PADS
10
0.242222222222
20
-13.5
30
0.00000000
0
SEQEND
8
PADS
0
POLYLINE
8
PADS
66
1
10
0.0
20
0.0
30
0.0
70
1
0
VERTEX
8
PADS
10
7.0
20
-13.0
30
0.00000000
0
VERTEX
8
PADS
10
7.5
20
-13.0
30
0.00000000
0
VERTEX
8
PADS
10
7.5
20
-26.0
30
0.00000000
0
VERTEX
8
PADS
10
7.0
20
-26.0
30
0.00000000
0
SEQEND
8
PADS
0
POLYLINE
8
PADS
66
1
10
0.0
20
0.0
30
0.0
70
1
0
VERTEX
8
PADS
10
-4.35
20
-23.0
30
0.00000000
0
VERTEX
8
PADS
10
-4.05
20
-23.0
30
0.00000000
0
VERTEX
8
PADS
10
-4.05
20
-22.7
30
0.00000000
0
VERTEX
8
PADS
10
-4.35
20
-22.7
30
0.00000000
0
SEQEND
8
PADS
0
POLYLINE
8
PADS
66
1
10
0.0
20
0.0
30
0.0
70
1
0
VERTEX
8
PADS
10
-4.35
20
-16.0
30
0.00000000
0
VERTEX
8
PADS
10
-4.05
20
-16.0
30
0.00000000
0
VERTEX
8
PADS
10
-4.05
20
-16.3
30
0.00000000
0
VERTEX
8
PADS
10
-4.35
20
-16.3
30
0.00000000
0
SEQEND
8
PADS
0
POLYLINE
8
PADS
66
1
10
0.0
20
0.0
30
0.0
70
1
0
VERTEX
8
PADS
10
-3.75
20
-23.0
30
0.00000000
0
VERTEX
8
PADS
10
-3.45
20
-23.0
30
0.00000000
0
VERTEX
8
PADS
10
-3.45
20
-22.7
30
0.00000000
0
VERTEX
8
PADS
10
-3.75
20
-22.7
30
0.00000000
0
SEQEND
8
PADS
0
POLYLINE
8
PADS
66
1
10
0.0
20
0.0
30
0.0
70
1
0
VERTEX
8
PADS
10
-3.75
20
-16.0
30
0.00000000
0
VERTEX
8
PADS
10
-3.45
20
-16.0
30
0.00000000
0
VERTEX
8
PADS
10
-3.45
20
-16.3
30
0.00000000
0
VERTEX
8
PADS
10
-3.75
20
-16.3
30
0.00000000
0
SEQEND
8
PADS
0
POLYLINE
8
PADS
66
1
10
0.0
20
0.0
30
0.0
70
1
0
VERTEX
8
PADS
10
-3.15
20
-23.0
30
0.00000000
0
VERTEX
8
PADS
10
-2.85
20
-23.0
30
0.00000000
0
VERTEX
8
PADS
10
-2.85
20
-22.7
30
0.00000000
0
VERTEX
8
PADS
10
-3.15
20
-22.7
30
0.00000000
0
SEQEND
8
PADS
0
POLYLINE
8
PADS
66
1
10
0.0
20
0.0
30
0.0
70
1
0
VERTEX
8
PADS
10
-3.15
20
-16.0
30
0.00000000
0
VERTEX
8
PADS
10
-2.85
20
-16.0
30
0.00000000
0
VERTEX
8
PADS
10
-2.85
20
-16.3
30
0.00000000
0
VERTEX
8
PADS
10
-3.15
20
-16.3
30
0.00000000
0
SEQEND
8
PADS
0
POLYLINE
8
PADS
66
1
10
0.0
20
0.0
30
0.0
70
1
0
VERTEX
8
PADS
10
-2.55
20
-23.0
30
0.00000000
0
VERTEX
8
PADS
10
-2.25
20
-23.0
30
0.00000000
0
VERTEX
8
PADS
10
-2.25
20
-22.7
30
0.00000000
0
VERTEX
8
PADS
10
-2.55
20
-22.7
30
0.00000000
0
SEQEND
8
PADS
0
POLYLINE
8
PADS
66
1
10
0.0
20
0.0
30
0.0
70
1
0
VERTEX
8
PADS
10
-2.55
20
-16.0
30
0.00000000
0
VERTEX
8
PADS
10
-2.25
20
-16.0
30
0.00000000
0
VERTEX
8
PADS
10
-2.25
20
-16.3
30
0.00000000
0
VERTEX
8
PADS
10
-2.55
20
-16.3
30
0.00000000
0
SEQEND
8
PADS
0
POLYLINE
8
PADS
66
1
10
0.0
20
0.0
30
0.0
70
1
0
VERTEX
8
PADS
10
-1.95
20
-23.0
30
0.00000000
0
VERTEX
8
PADS
10
-1.65
20
-23.0
30
0.00000000
0
VERTEX
8
PADS
10
-1.65
20
-22.7
30
0.00000000
0
VERTEX
8
PADS
10
-1.95
20
-22.7
30
0.00000000
0
SEQEND
8
PADS
0
POLYLINE
8
PADS
66
1
10
0.0
20
0.0
30
0.0
70
1
0
VERTEX
8
PADS
10
-1.95
20
-16.0
30
0.00000000
0
VERTEX
8
PADS
10
-1.65
20
-16.0
30
0.00000000
0
VERTEX
8
PADS
10
-1.65
20
-16.3
30
0.00000000
0
VERTEX
8
PADS
10
-1.95
20
-16.3
30
0.00000000
0
SEQEND
8
PADS
0
POLYLINE
8
PADS
66
1
10
0.0
20
0.0
30
0.0
70
1
0
VERTEX
8
PADS
10
-1.35
20
-23.0
30
0.00000000
0
VERTEX
8
PADS
10
-1.05
20
-23.0
30
0.00000000
0
VERTEX
8
PADS
10
-1.05
20
-22.7
30
0.00000000
0
VERTEX
8
PADS
10
-1.35
20
-22.7
30
0.00000000
0
SEQEND
8
PADS
0
POLYLINE
8
PADS
66
1
10
0.0
20
0.0
30
0.0
70
1
0
VERTEX
8
PADS
10
-1.35
20
-16.0
30
0.00000000
0
VERTEX
8
PADS
10
-1.05
20
-16.0
30
0.00000000
0
VERTEX
8
PADS
10
-1.05
20
-16.3
30
0.00000000
0
VERTEX
8
PADS
10
-1.35
20
-16.3
30
0.00000000
0
SEQEND
8
PADS
0
POLYLINE
8
PADS
66
1
10
0.0
20
0.0
30
0.0
70
1
0
VERTEX
8
PADS
10
-0.75
20
-23.0
30
0.00000000
0
VERTEX
8
PADS
10
-0.45
20
-23.0
30
0.00000000
0
VERTEX
8
PADS
10
-0.45
20
-22.7
30
0.00000000
0
VERTEX
8
PADS
10
-0.75
20
-22.7
30
0.00000000
0
SEQEND
8
PADS
0
POLYLINE
8
PADS
66
1
10
0.0
20
0.0
30
0.0
70
1
0
VERTEX
8
PADS
10
-0.75
20
-16.0
30
0.00000000
0
VERTEX
8
PADS
10
-0.45
20
-16.0
30
0.00000000
0
VERTEX
8
PADS
10
-0.45
20
-16.3
30
0.00000000
0
VERTEX
8
PADS
10
-0.75
20
-16.3
30
0.00000000
0
SEQEND
8
PADS
0
POLYLINE
8
PADS
66
1
10
0.0
20
0.0
30
0.0
70
1
0
VERTEX
8
PADS
10
-0.15
20
-23.0
30
0.00000000
0
VERTEX
8
PADS
10
0.15
20
-23.0
30
0.00000000
0
VERTEX
8
PADS
10
0.15
20
-22.7
30
0.00000000
0
VERTEX
8
PADS
10
-0.15
20
-22.7
30
0.00000000
0
SEQEND
8
PADS
0
POLYLINE
8
PADS
66
1
10
0.0
20
0.0
30
0.0
70
1
0
VERTEX
8
PADS
10
-0.15
20
-16.0
30
0.00000000
0
VERTEX
8
PADS
10
0.15
20
-16.0
30
0.00000000
0
VERTEX
8
PADS
10
0.15
20
-16.3
30
0.00000000
0
VERTEX
8
PADS
10
-0.15
20
-16.3
30
0.00000000
0
SEQEND
8
PADS
0
POLYLINE
8
PADS
66
1
10
0.0
20
0.0
30
0.0
70
1
0
VERTEX
8
PADS
10
0.45
20
-23.0
30
0.00000000
0
VERTEX
8
PADS
10
0.75
20
-23.0
30
0.00000000
0
VERTEX
8
PADS
10
0.75
20
-22.7
30
0.00000000
0
VERTEX
8
PADS
10
0.45
20
-22.7
30
0.00000000
0
SEQEND
8
PADS
0
POLYLINE
8
PADS
66
1
10
0.0
20
0.0
30
0.0
70
1
0
VERTEX
8
PADS
10
0.45
20
-16.0
30
0.00000000
0
VERTEX
8
PADS
10
0.75
20
-16.0
30
0.00000000
0
VERTEX
8
PADS
10
0.75
20
-16.3
30
0.00000000
0
VERTEX
8
PADS
10
0.45
20
-16.3
30
0.00000000
0
SEQEND
8
PADS
0
POLYLINE
8
PADS
66
1
10
0.0
20
0.0
30
0.0
70
1
0
VERTEX
8
PADS
10
1.05
20
-23.0
30
0.00000000
0
VERTEX
8
PADS
10
1.35
20
-23.0
30
0.00000000
0
VERTEX
8
PADS
10
1.35
20
-22.7
30
0.00000000
0
VERTEX
8
PADS
10
1.05
20
-22.7
30
0.00000000
0
SEQEND
8
PADS
0
POLYLINE
8
PADS
66
1
10
0.0
20
0.0
30
0.0
70
1
0
VERTEX
8
PADS
10
1.05
20
-16.0
30
0.00000000
0
VERTEX
8
PADS
10
1.35
20
-16.0
30
0.00000000
0
VERTEX
8
PADS
10
1.35
20
-16.3
30
0.00000000
0
VERTEX
8
PADS
10
1.05
20
-16.3
30
0.00000000
0
SEQEND
8
PADS
0
POLYLINE
8
PADS
66
1
10
0.0
20
0.0
30
0.0
70
1
0
VERTEX
8
PADS
10
1.65
20
-23.0
30
0.00000000
0
VERTEX
8
PADS
10
1.95
20
-23.0
30
0.00000000
0
VERTEX
8
PADS
10
1.95
20
-22.7
30
0.00000000
0
VERTEX
8
PADS
10
1.65
20
-22.7
30
0.00000000
0
SEQEND
8
PADS
0
POLYLINE
8
PADS
66
1
10
0.0
20
0.0
30
0.0
70
1
0
VERTEX
8
PADS
10
1.65
20
-16.0
30
0.00000000
0
VERTEX
8
PADS
10
1.95
20
-16.0
30
0.00000000
0
VERTEX
8
PADS
10
1.95
20
-16.3
30
0.00000000
0
VERTEX
8
PADS
10
1.65
20
-16.3
30
0.00000000
0
SEQEND
8
PADS
0
POLYLINE
8
PADS
66
1
10
0.0
20
0.0
30
0.0
70
1
0
VERTEX
8
PADS
10
2.25
20
-23.0
30
0.00000000
0
VERTEX
8
PADS
10
2.55
20
-23.0
30
0.00000000
0
VERTEX
8
PADS
10
2.55
20
-22.7
30
0.00000000
0
VERTEX
8
PADS
10
2.25
20
-22.7
30
0.00000000
0
SEQEND
8
PADS
0
POLYLINE
8
PADS
66
1
10
0.0
20
0.0
30
0.0
70
1
0
VERTEX
8
PADS
10
2.25
20
-16.0
30
0.00000000
0
VERTEX
8
PADS
10
2.55
20
-16.0
30
0.00000000
0
VERTEX
8
PADS
10
2.55
20
-16.3
30
0.00000000
0
VERTEX
8
PADS
10
2.25
20
-16.3
30
0.00000000
0
SEQEND
8
PADS
0
POLYLINE
8
PADS
66
1
10
0.0
20
0.0
30
0.0
70
1
0
VERTEX
8
PADS
10
2.85
20
-23.0
30
0.00000000
0
VERTEX
8
PADS
10
3.15
20
-23.0
30
0.00000000
0
VERTEX
8
PADS
10
3.15
20
-22.7
30
0.00000000
0
VERTEX
8
PADS
10
2.85
20
-22.7
30
0.00000000
0
SEQEND
8
PADS
0
POLYLINE
8
PADS
66
1
10
0.0
20
0.0
30
0.0
70
1
0
VERTEX
8
PADS
10
2.85
20
-16.0
30
0.00000000
0
VERTEX
8
PADS
10
3.15
20
-16.0
30
0.00000000
0
VERTEX
8
PADS
10
3.15
20
-16.3
30
0.00000000
0
VERTEX
8
PADS
10
2.85
20
-16.3
30
0.00000000
0
SEQEND
8
PADS
0
POLYLINE
8
PADS
66
1
10
0.0
20
0.0
30
0.0
70
1
0
VERTEX
8
PADS
10
3.45
20
-23.0
30
0.00000000
0
VERTEX
8
PADS
10
3.75
20
-23.0
30
0.00000000
0
VERTEX
8
PADS
10
3.75
20
-22.7
30
0.00000000
0
VERTEX
8
PADS
10
3.45
20
-22.7
30
0.00000000
0
SEQEND
8
PADS
0
POLYLINE
8
PADS
66
1
10
0.0
20
0.0
30
0.0
70
1
0
VERTEX
8
PADS
10
3.45
20
-16.0
30
0.00000000
0
VERTEX
8
PADS
10
3.75
20
-16.0
30
0.00000000
0
VERTEX
8
PADS
10
3.75
20
-16.3
30
0.00000000
0
VERTEX
8
PADS
10
3.45
20
-16.3
30
0.00000000
0
SEQEND
8
PADS
0
POLYLINE
8
PADS
66
1
10
0.0
20
0.0
30
0.0
70
1
0
VERTEX
8
PADS
10
4.05
20
-23.0
30
0.00000000
0
VERTEX
8
PADS
10
4.35
20
-23.0
30
0.00000000
0
VERTEX
8
PADS
10
4.35
20
-22.7
30
0.00000000
0
VERTEX
8
PADS
10
4.05
20
-22.7
30
0.00000000
0
SEQEND
8
PADS
0
POLYLINE
8
PADS
66
1
10
0.0
20
0.0
30
0.0
70
1
0
VERTEX
8
PADS
10
4.05
20
-16.0
30
0.00000000
0
VERTEX
8
PADS
10
4.35
20
-16.0
30
0.00000000
0
VERTEX
8
PADS
10
4.35
20
-16.3
30
0.00000000
0
VERTEX
8
PADS
10
4.05
20
-16.3
30
0.00000000
0
SEQEND
8
PADS
0
ENDSEC
0
EOF
