0
SECTION
2
HEADER
9
$ACADVER
1
AC1009
9
$EXTMIN
10
-50000.0
20
-50000.0
30
0.0
9
$EXTMAX
10
50000.0
20
50000.0
30
0.0
9
$LUNITS
70
2
9
$LUPREC
70
3
0
ENDSEC
0
SECTION
2
TABLES
0
TABLE
2
LTYPE
70
16
0
LTYPE
2
CONTINUOUS
70
0
3
Solid line
72
65
73
0
40
0.00000000
0
ENDTAB
0
TABLE
2
LAYER
70
10
0
LAYER
2
PADS
70
0
62
6
6
CONTINUOUS
0
ENDTAB
0
ENDSEC
0
SECTION
2
BLOCKS
0
BLOCK
8
0
2
$MODEL_SPACE
70
0
10
0.00000000
20
0.00000000
30
0.00000000
3
$MODEL_SPACE
1

0
ENDBLK
8
0
0
BLOCK
67
1
8
0
2
$PAPER_SPACE
70
0
10
0.0
20
0.0
30
0.0
3
$PAPER_SPACE
1

0
ENDBLK
67
1
8
0
0
ENDSEC
0
SECTION
2
ENTITIES
0
POLYLINE
8
PADS
66
1
10
0.0
20
0.0
30
0.0
70
1
0
VERTEX
8
PADS
10
-2.22359995553
20
-12.5
30
0.00000000
0
VERTEX
8
PADS
10
-2.13639995727
20
-12.5
30
0.00000000
0
VERTEX
8
PADS
10
-2.13639995727
20
13.0
30
0.00000000
0
VERTEX
8
PADS
10
-2.22359995553
20
13.0
30
0.00000000
0
SEQEND
8
PADS
0
POLYLINE
8
PADS
66
1
10
0.0
20
0.0
30
0.0
70
1
0
VERTEX
8
PADS
10
-2.04919995902
20
-12.5
30
0.00000000
0
VERTEX
8
PADS
10
-1.96199996076
20
-12.5
30
0.00000000
0
VERTEX
8
PADS
10
-1.96199996076
20
13.0
30
0.00000000
0
VERTEX
8
PADS
10
-2.04919995902
20
13.0
30
0.00000000
0
SEQEND
8
PADS
0
POLYLINE
8
PADS
66
1
10
0.0
20
0.0
30
0.0
70
1
0
VERTEX
8
PADS
10
-2.57239994855
20
-13.0
30
0.00000000
0
VERTEX
8
PADS
10
-2.4851999503
20
-13.0
30
0.00000000
0
VERTEX
8
PADS
10
-2.4851999503
20
12.5
30
0.00000000
0
VERTEX
8
PADS
10
-2.57239994855
20
12.5
30
0.00000000
0
SEQEND
8
PADS
0
POLYLINE
8
PADS
66
1
10
0.0
20
0.0
30
0.0
70
1
0
VERTEX
8
PADS
10
-2.39799995204
20
-13.0
30
0.00000000
0
VERTEX
8
PADS
10
-2.31079995378
20
-13.0
30
0.00000000
0
VERTEX
8
PADS
10
-2.31079995378
20
12.5
30
0.00000000
0
VERTEX
8
PADS
10
-2.39799995204
20
12.5
30
0.00000000
0
SEQEND
8
PADS
0
POLYLINE
8
PADS
66
1
10
0.0
20
0.0
30
0.0
70
1
0
VERTEX
8
PADS
10
-1.52599996948
20
-12.5
30
0.00000000
0
VERTEX
8
PADS
10
-1.43879997122
20
-12.5
30
0.00000000
0
VERTEX
8
PADS
10
-1.43879997122
20
13.0
30
0.00000000
0
VERTEX
8
PADS
10
-1.52599996948
20
13.0
30
0.00000000
0
SEQEND
8
PADS
0
POLYLINE
8
PADS
66
1
10
0.0
20
0.0
30
0.0
70
1
0
VERTEX
8
PADS
10
-1.35159997297
20
-12.5
30
0.00000000
0
VERTEX
8
PADS
10
-1.26439997471
20
-12.5
30
0.00000000
0
VERTEX
8
PADS
10
-1.26439997471
20
13.0
30
0.00000000
0
VERTEX
8
PADS
10
-1.35159997297
20
13.0
30
0.00000000
0
SEQEND
8
PADS
0
POLYLINE
8
PADS
66
1
10
0.0
20
0.0
30
0.0
70
1
0
VERTEX
8
PADS
10
-1.8747999625
20
-13.0
30
0.00000000
0
VERTEX
8
PADS
10
-1.78759996425
20
-13.0
30
0.00000000
0
VERTEX
8
PADS
10
-1.78759996425
20
12.5
30
0.00000000
0
VERTEX
8
PADS
10
-1.8747999625
20
12.5
30
0.00000000
0
SEQEND
8
PADS
0
POLYLINE
8
PADS
66
1
10
0.0
20
0.0
30
0.0
70
1
0
VERTEX
8
PADS
10
-1.70039996599
20
-13.0
30
0.00000000
0
VERTEX
8
PADS
10
-1.61319996774
20
-13.0
30
0.00000000
0
VERTEX
8
PADS
10
-1.61319996774
20
12.5
30
0.00000000
0
VERTEX
8
PADS
10
-1.70039996599
20
12.5
30
0.00000000
0
SEQEND
8
PADS
0
POLYLINE
8
PADS
66
1
10
0.0
20
0.0
30
0.0
70
1
0
VERTEX
8
PADS
10
-0.828399983432
20
-12.5
30
0.00000000
0
VERTEX
8
PADS
10
-0.741199985176
20
-12.5
30
0.00000000
0
VERTEX
8
PADS
10
-0.741199985176
20
13.0
30
0.00000000
0
VERTEX
8
PADS
10
-0.828399983432
20
13.0
30
0.00000000
0
SEQEND
8
PADS
0
POLYLINE
8
PADS
66
1
10
0.0
20
0.0
30
0.0
70
1
0
VERTEX
8
PADS
10
-0.65399998692
20
-12.5
30
0.00000000
0
VERTEX
8
PADS
10
-0.566799988664
20
-12.5
30
0.00000000
0
VERTEX
8
PADS
10
-0.566799988664
20
13.0
30
0.00000000
0
VERTEX
8
PADS
10
-0.65399998692
20
13.0
30
0.00000000
0
SEQEND
8
PADS
0
POLYLINE
8
PADS
66
1
10
0.0
20
0.0
30
0.0
70
1
0
VERTEX
8
PADS
10
-1.17719997646
20
-13.0
30
0.00000000
0
VERTEX
8
PADS
10
-1.0899999782
20
-13.0
30
0.00000000
0
VERTEX
8
PADS
10
-1.0899999782
20
12.5
30
0.00000000
0
VERTEX
8
PADS
10
-1.17719997646
20
12.5
30
0.00000000
0
SEQEND
8
PADS
0
POLYLINE
8
PADS
66
1
10
0.0
20
0.0
30
0.0
70
1
0
VERTEX
8
PADS
10
-1.00279997994
20
-13.0
30
0.00000000
0
VERTEX
8
PADS
10
-0.915599981688
20
-13.0
30
0.00000000
0
VERTEX
8
PADS
10
-0.915599981688
20
12.5
30
0.00000000
0
VERTEX
8
PADS
10
-1.00279997994
20
12.5
30
0.00000000
0
SEQEND
8
PADS
0
POLYLINE
8
PADS
66
1
10
0.0
20
0.0
30
0.0
70
1
0
VERTEX
8
PADS
10
-0.130799997384
20
-12.5
30
0.00000000
0
VERTEX
8
PADS
10
-0.043599999128
20
-12.5
30
0.00000000
0
VERTEX
8
PADS
10
-0.043599999128
20
13.0
30
0.00000000
0
VERTEX
8
PADS
10
-0.130799997384
20
13.0
30
0.00000000
0
SEQEND
8
PADS
0
POLYLINE
8
PADS
66
1
10
0.0
20
0.0
30
0.0
70
1
0
VERTEX
8
PADS
10
0.043599999128
20
-12.5
30
0.00000000
0
VERTEX
8
PADS
10
0.130799997384
20
-12.5
30
0.00000000
0
VERTEX
8
PADS
10
0.130799997384
20
13.0
30
0.00000000
0
VERTEX
8
PADS
10
0.043599999128
20
13.0
30
0.00000000
0
SEQEND
8
PADS
0
POLYLINE
8
PADS
66
1
10
0.0
20
0.0
30
0.0
70
1
0
VERTEX
8
PADS
10
-0.479599990408
20
-13.0
30
0.00000000
0
VERTEX
8
PADS
10
-0.392399992152
20
-13.0
30
0.00000000
0
VERTEX
8
PADS
10
-0.392399992152
20
12.5
30
0.00000000
0
VERTEX
8
PADS
10
-0.479599990408
20
12.5
30
0.00000000
0
SEQEND
8
PADS
0
POLYLINE
8
PADS
66
1
10
0.0
20
0.0
30
0.0
70
1
0
VERTEX
8
PADS
10
-0.305199993896
20
-13.0
30
0.00000000
0
VERTEX
8
PADS
10
-0.21799999564
20
-13.0
30
0.00000000
0
VERTEX
8
PADS
10
-0.21799999564
20
12.5
30
0.00000000
0
VERTEX
8
PADS
10
-0.305199993896
20
12.5
30
0.00000000
0
SEQEND
8
PADS
0
POLYLINE
8
PADS
66
1
10
0.0
20
0.0
30
0.0
70
1
0
VERTEX
8
PADS
10
-0.130799997384
20
-12.5
30
0.00000000
0
VERTEX
8
PADS
10
-0.043599999128
20
-12.5
30
0.00000000
0
VERTEX
8
PADS
10
-0.043599999128
20
-15.5
30
0.00000000
0
VERTEX
8
PADS
10
-0.130799997384
20
-15.5
30
0.00000000
0
SEQEND
8
PADS
0
POLYLINE
8
PADS
66
1
10
0.0
20
0.0
30
0.0
70
1
0
VERTEX
8
PADS
10
-0.130799997384
20
-25.5
30
0.00000000
0
VERTEX
8
PADS
10
-0.043599999128
20
-25.5
30
0.00000000
0
VERTEX
8
PADS
10
-0.043599999128
20
-23.5
30
0.00000000
0
VERTEX
8
PADS
10
-0.130799997384
20
-23.5
30
0.00000000
0
SEQEND
8
PADS
0
POLYLINE
8
PADS
66
1
10
0.0
20
0.0
30
0.0
70
1
0
VERTEX
8
PADS
10
0.566799988664
20
-12.5
30
0.00000000
0
VERTEX
8
PADS
10
0.65399998692
20
-12.5
30
0.00000000
0
VERTEX
8
PADS
10
0.65399998692
20
13.0
30
0.00000000
0
VERTEX
8
PADS
10
0.566799988664
20
13.0
30
0.00000000
0
SEQEND
8
PADS
0
POLYLINE
8
PADS
66
1
10
0.0
20
0.0
30
0.0
70
1
0
VERTEX
8
PADS
10
0.741199985176
20
-12.5
30
0.00000000
0
VERTEX
8
PADS
10
0.828399983432
20
-12.5
30
0.00000000
0
VERTEX
8
PADS
10
0.828399983432
20
13.0
30
0.00000000
0
VERTEX
8
PADS
10
0.741199985176
20
13.0
30
0.00000000
0
SEQEND
8
PADS
0
POLYLINE
8
PADS
66
1
10
0.0
20
0.0
30
0.0
70
1
0
VERTEX
8
PADS
10
0.21799999564
20
-13.0
30
0.00000000
0
VERTEX
8
PADS
10
0.305199993896
20
-13.0
30
0.00000000
0
VERTEX
8
PADS
10
0.305199993896
20
12.5
30
0.00000000
0
VERTEX
8
PADS
10
0.21799999564
20
12.5
30
0.00000000
0
SEQEND
8
PADS
0
POLYLINE
8
PADS
66
1
10
0.0
20
0.0
30
0.0
70
1
0
VERTEX
8
PADS
10
0.392399992152
20
-13.0
30
0.00000000
0
VERTEX
8
PADS
10
0.479599990408
20
-13.0
30
0.00000000
0
VERTEX
8
PADS
10
0.479599990408
20
12.5
30
0.00000000
0
VERTEX
8
PADS
10
0.392399992152
20
12.5
30
0.00000000
0
SEQEND
8
PADS
0
POLYLINE
8
PADS
66
1
10
0.0
20
0.0
30
0.0
70
1
0
VERTEX
8
PADS
10
1.26439997471
20
-12.5
30
0.00000000
0
VERTEX
8
PADS
10
1.35159997297
20
-12.5
30
0.00000000
0
VERTEX
8
PADS
10
1.35159997297
20
13.0
30
0.00000000
0
VERTEX
8
PADS
10
1.26439997471
20
13.0
30
0.00000000
0
SEQEND
8
PADS
0
POLYLINE
8
PADS
66
1
10
0.0
20
0.0
30
0.0
70
1
0
VERTEX
8
PADS
10
1.43879997122
20
-12.5
30
0.00000000
0
VERTEX
8
PADS
10
1.52599996948
20
-12.5
30
0.00000000
0
VERTEX
8
PADS
10
1.52599996948
20
13.0
30
0.00000000
0
VERTEX
8
PADS
10
1.43879997122
20
13.0
30
0.00000000
0
SEQEND
8
PADS
0
POLYLINE
8
PADS
66
1
10
0.0
20
0.0
30
0.0
70
1
0
VERTEX
8
PADS
10
0.915599981688
20
-13.0
30
0.00000000
0
VERTEX
8
PADS
10
1.00279997994
20
-13.0
30
0.00000000
0
VERTEX
8
PADS
10
1.00279997994
20
12.5
30
0.00000000
0
VERTEX
8
PADS
10
0.915599981688
20
12.5
30
0.00000000
0
SEQEND
8
PADS
0
POLYLINE
8
PADS
66
1
10
0.0
20
0.0
30
0.0
70
1
0
VERTEX
8
PADS
10
1.0899999782
20
-13.0
30
0.00000000
0
VERTEX
8
PADS
10
1.17719997646
20
-13.0
30
0.00000000
0
VERTEX
8
PADS
10
1.17719997646
20
12.5
30
0.00000000
0
VERTEX
8
PADS
10
1.0899999782
20
12.5
30
0.00000000
0
SEQEND
8
PADS
0
POLYLINE
8
PADS
66
1
10
0.0
20
0.0
30
0.0
70
1
0
VERTEX
8
PADS
10
1.96199996076
20
-12.5
30
0.00000000
0
VERTEX
8
PADS
10
2.04919995902
20
-12.5
30
0.00000000
0
VERTEX
8
PADS
10
2.04919995902
20
13.0
30
0.00000000
0
VERTEX
8
PADS
10
1.96199996076
20
13.0
30
0.00000000
0
SEQEND
8
PADS
0
POLYLINE
8
PADS
66
1
10
0.0
20
0.0
30
0.0
70
1
0
VERTEX
8
PADS
10
2.13639995727
20
-12.5
30
0.00000000
0
VERTEX
8
PADS
10
2.22359995553
20
-12.5
30
0.00000000
0
VERTEX
8
PADS
10
2.22359995553
20
13.0
30
0.00000000
0
VERTEX
8
PADS
10
2.13639995727
20
13.0
30
0.00000000
0
SEQEND
8
PADS
0
POLYLINE
8
PADS
66
1
10
0.0
20
0.0
30
0.0
70
1
0
VERTEX
8
PADS
10
1.61319996774
20
-13.0
30
0.00000000
0
VERTEX
8
PADS
10
1.70039996599
20
-13.0
30
0.00000000
0
VERTEX
8
PADS
10
1.70039996599
20
12.5
30
0.00000000
0
VERTEX
8
PADS
10
1.61319996774
20
12.5
30
0.00000000
0
SEQEND
8
PADS
0
POLYLINE
8
PADS
66
1
10
0.0
20
0.0
30
0.0
70
1
0
VERTEX
8
PADS
10
1.78759996425
20
-13.0
30
0.00000000
0
VERTEX
8
PADS
10
1.8747999625
20
-13.0
30
0.00000000
0
VERTEX
8
PADS
10
1.8747999625
20
12.5
30
0.00000000
0
VERTEX
8
PADS
10
1.78759996425
20
12.5
30
0.00000000
0
SEQEND
8
PADS
0
POLYLINE
8
PADS
66
1
10
0.0
20
0.0
30
0.0
70
1
0
VERTEX
8
PADS
10
2.31079995378
20
-13.0
30
0.00000000
0
VERTEX
8
PADS
10
2.39799995204
20
-13.0
30
0.00000000
0
VERTEX
8
PADS
10
2.39799995204
20
12.5
30
0.00000000
0
VERTEX
8
PADS
10
2.31079995378
20
12.5
30
0.00000000
0
SEQEND
8
PADS
0
POLYLINE
8
PADS
66
1
10
0.0
20
0.0
30
0.0
70
1
0
VERTEX
8
PADS
10
2.4851999503
20
-13.0
30
0.00000000
0
VERTEX
8
PADS
10
2.57239994855
20
-13.0
30
0.00000000
0
VERTEX
8
PADS
10
2.57239994855
20
12.5
30
0.00000000
0
VERTEX
8
PADS
10
2.4851999503
20
12.5
30
0.00000000
0
SEQEND
8
PADS
0
POLYLINE
8
PADS
66
1
10
0.0
20
0.0
30
0.0
70
1
0
VERTEX
8
PADS
10
-2.57239994855
20
13.0
30
0.00000000
0
VERTEX
8
PADS
10
2.57239994855
20
13.0
30
0.00000000
0
VERTEX
8
PADS
10
2.57239994855
20
13.5
30
0.00000000
0
VERTEX
8
PADS
10
-2.57239994855
20
13.5
30
0.00000000
0
SEQEND
8
PADS
0
POLYLINE
8
PADS
66
1
10
0.0
20
0.0
30
0.0
70
1
0
VERTEX
8
PADS
10
-7.0
20
-26.0
30
0.00000000
0
VERTEX
8
PADS
10
7.0
20
-26.0
30
0.00000000
0
VERTEX
8
PADS
10
7.0
20
-25.5
30
0.00000000
0
VERTEX
8
PADS
10
-7.0
20
-25.5
30
0.00000000
0
SEQEND
8
PADS
0
POLYLINE
8
PADS
66
1
10
0.0
20
0.0
30
0.0
70
1
0
VERTEX
8
PADS
10
-4.5
20
-15.5
30
0.00000000
0
VERTEX
8
PADS
10
4.5
20
-15.5
30
0.00000000
0
VERTEX
8
PADS
10
4.5
20
-16.0
30
0.00000000
0
VERTEX
8
PADS
10
-4.5
20
-16.0
30
0.00000000
0
SEQEND
8
PADS
0
POLYLINE
8
PADS
66
1
10
0.0
20
0.0
30
0.0
70
1
0
VERTEX
8
PADS
10
-4.5
20
-23.5
30
0.00000000
0
VERTEX
8
PADS
10
4.5
20
-23.5
30
0.00000000
0
VERTEX
8
PADS
10
4.5
20
-23.0
30
0.00000000
0
VERTEX
8
PADS
10
-4.5
20
-23.0
30
0.00000000
0
SEQEND
8
PADS
0
POLYLINE
8
PADS
66
1
10
0.0
20
0.0
30
0.0
70
1
0
VERTEX
8
PADS
10
-0.21799999564
20
-13.0
30
0.00000000
0
VERTEX
8
PADS
10
-2.57239994855
20
-13.0
30
0.00000000
0
VERTEX
8
PADS
10
-2.57239994855
20
-13.5
30
0.00000000
0
VERTEX
8
PADS
10
-0.21799999564
20
-13.5
30
0.00000000
0
SEQEND
8
PADS
0
POLYLINE
8
PADS
66
1
10
0.0
20
0.0
30
0.0
70
1
0
VERTEX
8
PADS
10
-0.21799999564
20
-13.0
30
0.00000000
0
VERTEX
8
PADS
10
-7.08719999826
20
-13.0
30
0.00000000
0
VERTEX
8
PADS
10
-7.08719999826
20
-13.5
30
0.00000000
0
VERTEX
8
PADS
10
-0.21799999564
20
-13.5
30
0.00000000
0
SEQEND
8
PADS
0
POLYLINE
8
PADS
66
1
10
0.0
20
0.0
30
0.0
70
1
0
VERTEX
8
PADS
10
-7.0
20
-13.0
30
0.00000000
0
VERTEX
8
PADS
10
-7.5
20
-13.0
30
0.00000000
0
VERTEX
8
PADS
10
-7.5
20
-26.0
30
0.00000000
0
VERTEX
8
PADS
10
-7.0
20
-26.0
30
0.00000000
0
SEQEND
8
PADS
0
POLYLINE
8
PADS
66
1
10
0.0
20
0.0
30
0.0
70
1
0
VERTEX
8
PADS
10
0.21799999564
20
-13.0
30
0.00000000
0
VERTEX
8
PADS
10
2.57239994855
20
-13.0
30
0.00000000
0
VERTEX
8
PADS
10
2.57239994855
20
-13.5
30
0.00000000
0
VERTEX
8
PADS
10
0.21799999564
20
-13.5
30
0.00000000
0
SEQEND
8
PADS
0
POLYLINE
8
PADS
66
1
10
0.0
20
0.0
30
0.0
70
1
0
VERTEX
8
PADS
10
0.21799999564
20
-13.0
30
0.00000000
0
VERTEX
8
PADS
10
7.08719999826
20
-13.0
30
0.00000000
0
VERTEX
8
PADS
10
7.08719999826
20
-13.5
30
0.00000000
0
VERTEX
8
PADS
10
0.21799999564
20
-13.5
30
0.00000000
0
SEQEND
8
PADS
0
POLYLINE
8
PADS
66
1
10
0.0
20
0.0
30
0.0
70
1
0
VERTEX
8
PADS
10
7.0
20
-13.0
30
0.00000000
0
VERTEX
8
PADS
10
7.5
20
-13.0
30
0.00000000
0
VERTEX
8
PADS
10
7.5
20
-26.0
30
0.00000000
0
VERTEX
8
PADS
10
7.0
20
-26.0
30
0.00000000
0
SEQEND
8
PADS
0
POLYLINE
8
PADS
66
1
10
0.0
20
0.0
30
0.0
70
1
0
VERTEX
8
PADS
10
-4.35
20
-23.0
30
0.00000000
0
VERTEX
8
PADS
10
-4.05
20
-23.0
30
0.00000000
0
VERTEX
8
PADS
10
-4.05
20
-22.7
30
0.00000000
0
VERTEX
8
PADS
10
-4.35
20
-22.7
30
0.00000000
0
SEQEND
8
PADS
0
POLYLINE
8
PADS
66
1
10
0.0
20
0.0
30
0.0
70
1
0
VERTEX
8
PADS
10
-4.35
20
-16.0
30
0.00000000
0
VERTEX
8
PADS
10
-4.05
20
-16.0
30
0.00000000
0
VERTEX
8
PADS
10
-4.05
20
-16.3
30
0.00000000
0
VERTEX
8
PADS
10
-4.35
20
-16.3
30
0.00000000
0
SEQEND
8
PADS
0
POLYLINE
8
PADS
66
1
10
0.0
20
0.0
30
0.0
70
1
0
VERTEX
8
PADS
10
-3.75
20
-23.0
30
0.00000000
0
VERTEX
8
PADS
10
-3.45
20
-23.0
30
0.00000000
0
VERTEX
8
PADS
10
-3.45
20
-22.7
30
0.00000000
0
VERTEX
8
PADS
10
-3.75
20
-22.7
30
0.00000000
0
SEQEND
8
PADS
0
POLYLINE
8
PADS
66
1
10
0.0
20
0.0
30
0.0
70
1
0
VERTEX
8
PADS
10
-3.75
20
-16.0
30
0.00000000
0
VERTEX
8
PADS
10
-3.45
20
-16.0
30
0.00000000
0
VERTEX
8
PADS
10
-3.45
20
-16.3
30
0.00000000
0
VERTEX
8
PADS
10
-3.75
20
-16.3
30
0.00000000
0
SEQEND
8
PADS
0
POLYLINE
8
PADS
66
1
10
0.0
20
0.0
30
0.0
70
1
0
VERTEX
8
PADS
10
-3.15
20
-23.0
30
0.00000000
0
VERTEX
8
PADS
10
-2.85
20
-23.0
30
0.00000000
0
VERTEX
8
PADS
10
-2.85
20
-22.7
30
0.00000000
0
VERTEX
8
PADS
10
-3.15
20
-22.7
30
0.00000000
0
SEQEND
8
PADS
0
POLYLINE
8
PADS
66
1
10
0.0
20
0.0
30
0.0
70
1
0
VERTEX
8
PADS
10
-3.15
20
-16.0
30
0.00000000
0
VERTEX
8
PADS
10
-2.85
20
-16.0
30
0.00000000
0
VERTEX
8
PADS
10
-2.85
20
-16.3
30
0.00000000
0
VERTEX
8
PADS
10
-3.15
20
-16.3
30
0.00000000
0
SEQEND
8
PADS
0
POLYLINE
8
PADS
66
1
10
0.0
20
0.0
30
0.0
70
1
0
VERTEX
8
PADS
10
-2.55
20
-23.0
30
0.00000000
0
VERTEX
8
PADS
10
-2.25
20
-23.0
30
0.00000000
0
VERTEX
8
PADS
10
-2.25
20
-22.7
30
0.00000000
0
VERTEX
8
PADS
10
-2.55
20
-22.7
30
0.00000000
0
SEQEND
8
PADS
0
POLYLINE
8
PADS
66
1
10
0.0
20
0.0
30
0.0
70
1
0
VERTEX
8
PADS
10
-2.55
20
-16.0
30
0.00000000
0
VERTEX
8
PADS
10
-2.25
20
-16.0
30
0.00000000
0
VERTEX
8
PADS
10
-2.25
20
-16.3
30
0.00000000
0
VERTEX
8
PADS
10
-2.55
20
-16.3
30
0.00000000
0
SEQEND
8
PADS
0
POLYLINE
8
PADS
66
1
10
0.0
20
0.0
30
0.0
70
1
0
VERTEX
8
PADS
10
-1.95
20
-23.0
30
0.00000000
0
VERTEX
8
PADS
10
-1.65
20
-23.0
30
0.00000000
0
VERTEX
8
PADS
10
-1.65
20
-22.7
30
0.00000000
0
VERTEX
8
PADS
10
-1.95
20
-22.7
30
0.00000000
0
SEQEND
8
PADS
0
POLYLINE
8
PADS
66
1
10
0.0
20
0.0
30
0.0
70
1
0
VERTEX
8
PADS
10
-1.95
20
-16.0
30
0.00000000
0
VERTEX
8
PADS
10
-1.65
20
-16.0
30
0.00000000
0
VERTEX
8
PADS
10
-1.65
20
-16.3
30
0.00000000
0
VERTEX
8
PADS
10
-1.95
20
-16.3
30
0.00000000
0
SEQEND
8
PADS
0
POLYLINE
8
PADS
66
1
10
0.0
20
0.0
30
0.0
70
1
0
VERTEX
8
PADS
10
-1.35
20
-23.0
30
0.00000000
0
VERTEX
8
PADS
10
-1.05
20
-23.0
30
0.00000000
0
VERTEX
8
PADS
10
-1.05
20
-22.7
30
0.00000000
0
VERTEX
8
PADS
10
-1.35
20
-22.7
30
0.00000000
0
SEQEND
8
PADS
0
POLYLINE
8
PADS
66
1
10
0.0
20
0.0
30
0.0
70
1
0
VERTEX
8
PADS
10
-1.35
20
-16.0
30
0.00000000
0
VERTEX
8
PADS
10
-1.05
20
-16.0
30
0.00000000
0
VERTEX
8
PADS
10
-1.05
20
-16.3
30
0.00000000
0
VERTEX
8
PADS
10
-1.35
20
-16.3
30
0.00000000
0
SEQEND
8
PADS
0
POLYLINE
8
PADS
66
1
10
0.0
20
0.0
30
0.0
70
1
0
VERTEX
8
PADS
10
-0.75
20
-23.0
30
0.00000000
0
VERTEX
8
PADS
10
-0.45
20
-23.0
30
0.00000000
0
VERTEX
8
PADS
10
-0.45
20
-22.7
30
0.00000000
0
VERTEX
8
PADS
10
-0.75
20
-22.7
30
0.00000000
0
SEQEND
8
PADS
0
POLYLINE
8
PADS
66
1
10
0.0
20
0.0
30
0.0
70
1
0
VERTEX
8
PADS
10
-0.75
20
-16.0
30
0.00000000
0
VERTEX
8
PADS
10
-0.45
20
-16.0
30
0.00000000
0
VERTEX
8
PADS
10
-0.45
20
-16.3
30
0.00000000
0
VERTEX
8
PADS
10
-0.75
20
-16.3
30
0.00000000
0
SEQEND
8
PADS
0
POLYLINE
8
PADS
66
1
10
0.0
20
0.0
30
0.0
70
1
0
VERTEX
8
PADS
10
-0.15
20
-23.0
30
0.00000000
0
VERTEX
8
PADS
10
0.15
20
-23.0
30
0.00000000
0
VERTEX
8
PADS
10
0.15
20
-22.7
30
0.00000000
0
VERTEX
8
PADS
10
-0.15
20
-22.7
30
0.00000000
0
SEQEND
8
PADS
0
POLYLINE
8
PADS
66
1
10
0.0
20
0.0
30
0.0
70
1
0
VERTEX
8
PADS
10
-0.15
20
-16.0
30
0.00000000
0
VERTEX
8
PADS
10
0.15
20
-16.0
30
0.00000000
0
VERTEX
8
PADS
10
0.15
20
-16.3
30
0.00000000
0
VERTEX
8
PADS
10
-0.15
20
-16.3
30
0.00000000
0
SEQEND
8
PADS
0
POLYLINE
8
PADS
66
1
10
0.0
20
0.0
30
0.0
70
1
0
VERTEX
8
PADS
10
0.45
20
-23.0
30
0.00000000
0
VERTEX
8
PADS
10
0.75
20
-23.0
30
0.00000000
0
VERTEX
8
PADS
10
0.75
20
-22.7
30
0.00000000
0
VERTEX
8
PADS
10
0.45
20
-22.7
30
0.00000000
0
SEQEND
8
PADS
0
POLYLINE
8
PADS
66
1
10
0.0
20
0.0
30
0.0
70
1
0
VERTEX
8
PADS
10
0.45
20
-16.0
30
0.00000000
0
VERTEX
8
PADS
10
0.75
20
-16.0
30
0.00000000
0
VERTEX
8
PADS
10
0.75
20
-16.3
30
0.00000000
0
VERTEX
8
PADS
10
0.45
20
-16.3
30
0.00000000
0
SEQEND
8
PADS
0
POLYLINE
8
PADS
66
1
10
0.0
20
0.0
30
0.0
70
1
0
VERTEX
8
PADS
10
1.05
20
-23.0
30
0.00000000
0
VERTEX
8
PADS
10
1.35
20
-23.0
30
0.00000000
0
VERTEX
8
PADS
10
1.35
20
-22.7
30
0.00000000
0
VERTEX
8
PADS
10
1.05
20
-22.7
30
0.00000000
0
SEQEND
8
PADS
0
POLYLINE
8
PADS
66
1
10
0.0
20
0.0
30
0.0
70
1
0
VERTEX
8
PADS
10
1.05
20
-16.0
30
0.00000000
0
VERTEX
8
PADS
10
1.35
20
-16.0
30
0.00000000
0
VERTEX
8
PADS
10
1.35
20
-16.3
30
0.00000000
0
VERTEX
8
PADS
10
1.05
20
-16.3
30
0.00000000
0
SEQEND
8
PADS
0
POLYLINE
8
PADS
66
1
10
0.0
20
0.0
30
0.0
70
1
0
VERTEX
8
PADS
10
1.65
20
-23.0
30
0.00000000
0
VERTEX
8
PADS
10
1.95
20
-23.0
30
0.00000000
0
VERTEX
8
PADS
10
1.95
20
-22.7
30
0.00000000
0
VERTEX
8
PADS
10
1.65
20
-22.7
30
0.00000000
0
SEQEND
8
PADS
0
POLYLINE
8
PADS
66
1
10
0.0
20
0.0
30
0.0
70
1
0
VERTEX
8
PADS
10
1.65
20
-16.0
30
0.00000000
0
VERTEX
8
PADS
10
1.95
20
-16.0
30
0.00000000
0
VERTEX
8
PADS
10
1.95
20
-16.3
30
0.00000000
0
VERTEX
8
PADS
10
1.65
20
-16.3
30
0.00000000
0
SEQEND
8
PADS
0
POLYLINE
8
PADS
66
1
10
0.0
20
0.0
30
0.0
70
1
0
VERTEX
8
PADS
10
2.25
20
-23.0
30
0.00000000
0
VERTEX
8
PADS
10
2.55
20
-23.0
30
0.00000000
0
VERTEX
8
PADS
10
2.55
20
-22.7
30
0.00000000
0
VERTEX
8
PADS
10
2.25
20
-22.7
30
0.00000000
0
SEQEND
8
PADS
0
POLYLINE
8
PADS
66
1
10
0.0
20
0.0
30
0.0
70
1
0
VERTEX
8
PADS
10
2.25
20
-16.0
30
0.00000000
0
VERTEX
8
PADS
10
2.55
20
-16.0
30
0.00000000
0
VERTEX
8
PADS
10
2.55
20
-16.3
30
0.00000000
0
VERTEX
8
PADS
10
2.25
20
-16.3
30
0.00000000
0
SEQEND
8
PADS
0
POLYLINE
8
PADS
66
1
10
0.0
20
0.0
30
0.0
70
1
0
VERTEX
8
PADS
10
2.85
20
-23.0
30
0.00000000
0
VERTEX
8
PADS
10
3.15
20
-23.0
30
0.00000000
0
VERTEX
8
PADS
10
3.15
20
-22.7
30
0.00000000
0
VERTEX
8
PADS
10
2.85
20
-22.7
30
0.00000000
0
SEQEND
8
PADS
0
POLYLINE
8
PADS
66
1
10
0.0
20
0.0
30
0.0
70
1
0
VERTEX
8
PADS
10
2.85
20
-16.0
30
0.00000000
0
VERTEX
8
PADS
10
3.15
20
-16.0
30
0.00000000
0
VERTEX
8
PADS
10
3.15
20
-16.3
30
0.00000000
0
VERTEX
8
PADS
10
2.85
20
-16.3
30
0.00000000
0
SEQEND
8
PADS
0
POLYLINE
8
PADS
66
1
10
0.0
20
0.0
30
0.0
70
1
0
VERTEX
8
PADS
10
3.45
20
-23.0
30
0.00000000
0
VERTEX
8
PADS
10
3.75
20
-23.0
30
0.00000000
0
VERTEX
8
PADS
10
3.75
20
-22.7
30
0.00000000
0
VERTEX
8
PADS
10
3.45
20
-22.7
30
0.00000000
0
SEQEND
8
PADS
0
POLYLINE
8
PADS
66
1
10
0.0
20
0.0
30
0.0
70
1
0
VERTEX
8
PADS
10
3.45
20
-16.0
30
0.00000000
0
VERTEX
8
PADS
10
3.75
20
-16.0
30
0.00000000
0
VERTEX
8
PADS
10
3.75
20
-16.3
30
0.00000000
0
VERTEX
8
PADS
10
3.45
20
-16.3
30
0.00000000
0
SEQEND
8
PADS
0
POLYLINE
8
PADS
66
1
10
0.0
20
0.0
30
0.0
70
1
0
VERTEX
8
PADS
10
4.05
20
-23.0
30
0.00000000
0
VERTEX
8
PADS
10
4.35
20
-23.0
30
0.00000000
0
VERTEX
8
PADS
10
4.35
20
-22.7
30
0.00000000
0
VERTEX
8
PADS
10
4.05
20
-22.7
30
0.00000000
0
SEQEND
8
PADS
0
POLYLINE
8
PADS
66
1
10
0.0
20
0.0
30
0.0
70
1
0
VERTEX
8
PADS
10
4.05
20
-16.0
30
0.00000000
0
VERTEX
8
PADS
10
4.35
20
-16.0
30
0.00000000
0
VERTEX
8
PADS
10
4.35
20
-16.3
30
0.00000000
0
VERTEX
8
PADS
10
4.05
20
-16.3
30
0.00000000
0
SEQEND
8
PADS
0
ENDSEC
0
EOF
